:version 1.10
:name ASF
:units
  mass 1
  length 1
  angle deg
:documentation
  ASF file generated by Kaydara
:root
  axis xyz
  order  tx ty tz rx ry rz
  position 0 0 0
  orientation 0 0 0
:bonedata
  begin
    id 1
    name SpineDummy
    direction 0.999998 -0.00179978 1.38929e-006
    length 3.60008
    axis 0 0 0 xyz
  end
  begin
    id 2
    name Spine
    direction 0.964365 0.262802 0.0305839
    length 8.13928
    axis 1.33928 -1.75354 15.2838 xyz
    dof rx ry rz
  end
  begin
    id 3
    name Spine1
    direction 0.811168 0.572065 0.12144
    length 7.14954
    axis 2.2224 -6.9761 35.2157 xyz
    dof rx ry rz
  end
  begin
    id 4
    name Neck
    direction 0 0 0
    length 0
    axis 2.2224 -6.9761 35.2157 xyz
    dof rx ry rz
  end
  begin
    id 5
    name HeadDummy
    direction 0.810939 0.572387 0.121455
    length 3.55534
    axis 2.2224 -6.9761 35.2157 xyz
  end
  begin
    id 6
    name Head
    direction 0.998226 -0.000232542 0.0595419
    length 7.35666
    axis -3.03688 -3.41352 -0.0133467 xyz
    dof rx ry rz
  end
  begin
    id 7
    name R_ClavicleDummy
    direction 0.531669 -0.194489 -0.824319
    length 2.49392
    axis 2.2224 -6.9761 35.2157 xyz
  end
  begin
    id 8
    name R_Clavicle
    direction -0.155119 0.0480802 -0.986725
    length 4.485
    axis -54.2764 80.6538 162.779 xyz
    dof rx ry rz
  end
  begin
    id 9
    name R_UpperArm
    direction -0.955567 0.200068 -0.216484
    length 10.1122
    axis -72.9943 12.5026 168.175 xyz
    dof rx ry rz
  end
  begin
    id 10
    name R_Forearm
    direction -0.61433 0.385743 0.688332
    length 9.39148
    axis -117.015 -43.4982 147.875 xyz
    dof rx ry rz
  end
  begin
    id 11
    name R_Hand
    direction -0.699429 0.0170333 0.714499
    length 3.66324
    axis -45.0303 -36.7097 175.478 xyz
    dof rx ry rz
  end
  begin
    id 12
    name L_ClavicleDummy
    direction 0.40287 -0.36502 0.839319
    length 2.49392
    axis 2.2224 -6.9761 35.2157 xyz
  end
  begin
    id 13
    name L_Clavicle
    direction -0.231271 -0.0726419 0.970174
    length 4.485
    axis 18.4357 -75.9711 -162.563 xyz
    dof rx ry rz
  end
  begin
    id 14
    name L_UpperArm
    direction -0.917494 0.144359 0.370629
    length 10.1122
    axis 56.0417 -21.7544 171.058 xyz
    dof rx ry rz
  end
  begin
    id 15
    name L_Forearm
    direction -0.496786 0.615074 -0.612281
    length 9.39148
    axis 89.8094 37.7546 128.927 xyz
    dof rx ry rz
  end
  begin
    id 16
    name L_Hand
    direction -0.409932 0.64962 -0.640274
    length 3.66324
    axis -0.424369 32.133 128.52 xyz
    dof rx ry rz
  end
  begin
    id 17
    name L_ThighDummy
    direction -1.84081e-006 1.87549e-006 1
    length 3.13049
    axis 0 0 0 xyz
  end
  begin
    id 18
    name L_Thigh
    direction -0.947739 0.307978 0.083308
    length 17.9961
    axis 173.219 -4.77873 161.998 xyz
    dof rx ry rz
  end
  begin
    id 19
    name L_Calf
    direction -0.728814 -0.684427 0.0197583
    length 13.3367
    axis 167.331 -1.13214 -136.799 xyz
    dof rx ry rz
  end
  begin
    id 20
    name L_Foot
    direction -0.9028 0.418719 0.0981191
    length 5.8674
    axis 163.436 11.5135 -155.37 xyz
    dof rx ry rz
  end
  begin
    id 21
    name L_Toe0
    direction -0.35341 0.886259 0.299411
    length 4.75286
    axis 169.316 -17.4222 111.74 xyz
    dof rx ry rz
  end
  begin
    id 22
    name R_ThighDummy
    direction 9.32778e-007 -8.82053e-007 -1
    length 3.13049
    axis 0 0 0 xyz
  end
  begin
    id 23
    name R_Thigh
    direction -0.925064 0.37528 -0.0585023
    length 17.9961
    axis -178.698 3.35385 157.919 xyz
    dof rx ry rz
  end
  begin
    id 24
    name R_Calf
    direction -0.68969 -0.718776 -0.0876886
    length 13.3367
    axis -160.504 5.03065 -133.817 xyz
    dof rx ry rz
  end
  begin
    id 25
    name R_Foot
    direction -0.857405 0.418858 -0.299022
    length 5.8674
    axis -161.328 4.38911 -154.413 xyz
    dof rx ry rz
  end
  begin
    id 26
    name R_Toe0
    direction -0.100745 0.952789 -0.286433
    length 4.75286
    axis 171.683 16.6445 96.0359 xyz
    dof rx ry rz
  end
:hierarchy
  begin
    root SpineDummy L_ThighDummy R_ThighDummy
    SpineDummy Spine
    Spine Spine1
    Spine1 Neck
    Neck HeadDummy R_ClavicleDummy L_ClavicleDummy
    HeadDummy Head
    R_ClavicleDummy R_Clavicle
    R_Clavicle R_UpperArm
    R_UpperArm R_Forearm
    R_Forearm R_Hand
    L_ClavicleDummy L_Clavicle
    L_Clavicle L_UpperArm
    L_UpperArm L_Forearm
    L_Forearm L_Hand
    L_ThighDummy L_Thigh
    L_Thigh L_Calf
    L_Calf L_Foot
    L_Foot L_Toe0
    R_ThighDummy R_Thigh
    R_Thigh R_Calf
    R_Calf R_Foot
    R_Foot R_Toe0
  end

:SAMPLES-PER-SECOND 30
:FULLY-SPECIFIED
:DEGREES
253
root  -7.95147 27.8915 48.3528 -35.2659 -0.663186 73.9097
Spine  -15.1328 -10.3748 -6.90344
Spine1  -15.8818 27.5803 -6.06072
Neck  3.97569e-016 0 -2.38542e-015
Head  -6.66667 -18.2825 10.7015
R_Clavicle  1.42526 7.54778 5.96519
R_UpperArm  56.7922 25.4055 66.0853
R_Forearm  -2.99281 -36.0993 28.5549
R_Hand  -0.0440774 5.93712 -10.0427
L_Clavicle  0.0107821 -1.28124 0.14475
L_UpperArm  -13.7121 -23.4987 48.5095
L_Forearm  0.354765 25.9451 33.1655
L_Hand  -0.412321 4.30458 -4.60254
L_Thigh  -13.3774 -11.6926 -20.5683
L_Calf  21.8991 2.26982 -16.9874
L_Foot  12.2915 13.8483 25.7994
L_Toe0  10.2189 -1.52781 2.653
R_Thigh  22.4896 16.038 6.86745
R_Calf  11.2555 7.14508 22.9085
R_Foot  -10.5202 -41.4402 -2.97961
R_Toe0  1.86113 -0.35605 -13.792
254
root  -6.35939 28.6459 48.5659 -33.2141 1.2226 74.7294
Spine  -13.2063 -9.63165 -5.40543
Spine1  -13.9765 24.4444 -7.3288
Neck  3.97569e-016 0 -2.38542e-015
Head  -12.7496 -16.6348 12.2256
R_Clavicle  1.08886 -0.608602 5.58289
R_UpperArm  51.8843 16.1918 65.0666
R_Forearm  5.15293 -34.4567 26.0493
R_Hand  -0.292617 6.00752 -12.2359
L_Clavicle  -0.107979 1.23826 0.565979
L_UpperArm  -16.1226 -19.9308 46.4361
L_Forearm  -1.82016 18.1805 22.4368
L_Hand  -0.348368 6.6462 -3.01805
L_Thigh  -10.8113 -12.3623 -16.3299
L_Calf  17.7237 1.92317 -14.4511
L_Foot  8.9612 8.11964 23.9301
L_Toe0  8.14747 -0.954352 0.788384
R_Thigh  22.9652 14.169 7.26577
R_Calf  1.80886 9.39385 30.888
R_Foot  -0.131897 -36.026 -24.1481
R_Toe0  -0.255853 -0.298029 -9.75329
255
root  -4.75858 29.177 48.841 -30.4784 2.84479 74.949
Spine  -11.6184 -7.71534 -3.25604
Spine1  -12.0507 20.1452 -6.76955
Neck  3.97569e-016 0 -2.38542e-015
Head  -17.8683 -15.1844 11.4123
R_Clavicle  0.825055 -8.39782 5.38072
R_UpperArm  46.1629 8.2194 61.316
R_Forearm  15.6701 -33.2407 24.0871
R_Hand  -0.617244 3.19865 -13.5955
L_Clavicle  -0.136837 5.01532 -0.0201038
L_UpperArm  -16.458 -15.8115 44.2941
L_Forearm  -4.81198 13.3657 15.9175
L_Hand  -0.0270353 9.52888 0.0412917
L_Thigh  -9.08182 -12.4543 -13.2559
L_Calf  8.1 1.56699 -11.8242
L_Foot  8.27748 6.5794 24.0024
L_Toe0  3.99898 -0.209773 -3.02153
R_Thigh  17.3325 11.6865 9.07874
R_Calf  -7.93812 9.59839 31.6747
R_Foot  3.20365 -17.5622 -30.6559
R_Toe0  -4.19307 -0.12023 -15.9437
256
root  -3.32659 29.306 49.0698 -28.0963 4.16634 74.0271
Spine  -9.96408 -5.91818 -0.510635
Spine1  -9.70546 15.9768 -3.85303
Neck  3.97569e-016 0 -2.38542e-015
Head  -21.7579 -15.2261 6.5825
R_Clavicle  0.58017 -14.597 4.40993
R_UpperArm  40.234 2.85418 55.1729
R_Forearm  28.2639 -31.324 22.9084
R_Hand  -0.854498 0.439925 -14.4418
L_Clavicle  -0.249977 9.66863 -0.377275
L_UpperArm  -17.6925 -12.4676 41.2821
L_Forearm  -6.46701 10.5174 12.371
L_Hand  0.371415 11.778 2.67445
L_Thigh  -7.64782 -12.459 -11.5412
L_Calf  1.51661 1.30921 -9.87814
L_Foot  9.18104 8.20104 24.4816
L_Toe0  0.173958 0.0609384 -6.43203
R_Thigh  6.38253 9.3552 11.8302
R_Calf  -13.4184 7.11005 22.7546
R_Foot  2.69708 -1.41395 -25.3537
R_Toe0  -1.58923 -0.28548 -17.5001
257
root  -2.04547 29.0719 49.201 -26.7996 6.23897 72.0962
Spine  -8.23979 -5.34969 2.60504
Spine1  -7.22986 10.9982 -0.282465
Neck  3.97569e-016 0 -2.38542e-015
Head  -26.6184 -15.2749 -0.301003
R_Clavicle  0.450477 -18.5376 2.93502
R_UpperArm  30.6307 -1.55827 47.0091
R_Forearm  44.0827 -24.1581 19.8663
R_Hand  -1.14175 0.54828 -19.1325
L_Clavicle  -0.414254 14.7254 -0.039017
L_UpperArm  -19.1015 -10.8385 38.3738
L_Forearm  -9.8859 6.70034 7.78522
L_Hand  0.412315 13.1737 2.75673
L_Thigh  -6.00067 -14.0212 -10.6698
L_Calf  2.79996 1.18237 -8.81099
L_Foot  9.63724 8.65282 25.2469
L_Toe0  0.505156 0.034446 -6.1361
R_Thigh  -2.20364 7.24807 14.4935
R_Calf  -14.3928 1.76922 5.46655
R_Foot  1.6629 -0.840513 -16.6264
R_Toe0  -1.97908 -0.265127 -17.1553
258
root  -0.775882 28.6464 49.2244 -25.5461 9.09229 70.6407
Spine  -6.77265 -5.29223 5.11486
Spine1  -5.49843 4.7026 2.21058
Neck  3.97569e-016 0 -2.38542e-015
Head  -33.8108 -14.3908 -5.48038
R_Clavicle  0.422028 -19.6018 2.11453
R_UpperArm  25.999 -5.78242 38.1495
R_Forearm  46.0483 -13.0033 11.2159
R_Hand  -1.4739 0.460388 -24.1475
L_Clavicle  -0.504195 18.2208 0.577914
L_UpperArm  -18.6029 -9.08075 36.5106
L_Forearm  -14.417 -0.159379 -0.200852
L_Hand  0.214569 14.856 1.47518
L_Thigh  -5.39217 -16.2631 -8.97908
L_Calf  5.97809 1.1848 -8.58103
L_Foot  9.45278 7.70305 26.0875
L_Toe0  0.505156 0.034446 -6.1361
R_Thigh  -7.58019 5.18865 15.7722
R_Calf  -8.73459 -4.64076 -14.5829
R_Foot  0.164294 -6.25395 -11.5242
R_Toe0  -2.51778 -0.243453 -16.6795
259
root  0.600749 28.2798 49.0974 -22.8206 11.9067 70.9295
Spine  -5.62575 -5.0207 6.19073
Spine1  -4.68072 -0.984186 3.32537
Neck  3.97569e-016 0 -2.38542e-015
Head  -41.5817 -13.5654 -6.66445
R_Clavicle  0.416658 -18.3567 1.98609
R_UpperArm  21.436 -7.7511 30.5607
R_Forearm  32.9821 0.419119 -0.375187
R_Hand  -1.37524 -1.19722 -22.8212
L_Clavicle  -0.507491 18.6738 0.95274
L_UpperArm  -15.6192 -5.18171 34.2981
L_Forearm  -15.9522 -9.18487 -10.7826
L_Hand  0.330456 16.1117 2.0108
L_Thigh  -6.32756 -17.1043 -5.62566
L_Calf  6.09572 1.16873 -8.23544
L_Foot  9.27693 7.06729 26.5142
L_Toe0  0.505156 0.034446 -6.1361
R_Thigh  -10.0178 2.54629 14.3558
R_Calf  -3.24073 -9.91481 -32.7836
R_Foot  -0.191289 -5.34991 -8.25144
R_Toe0  -1.72939 -0.275165 -17.3757
260
root  2.11797 28.2608 48.7582 -18.5849 14.0508 73.0516
Spine  -4.75586 -5.16692 5.97782
Spine1  -4.21453 -3.7027 3.30711
Neck  3.97569e-016 0 -2.38542e-015
Head  -47.4013 -13.2284 -4.23517
R_Clavicle  0.385444 -15.7907 1.51031
R_UpperArm  15.6129 -5.82823 24.4321
R_Forearm  16.2164 12.9464 -11.0375
R_Hand  -0.903725 3.20381 -16.5174
L_Clavicle  -0.483435 17.4693 0.90608
L_UpperArm  -10.9408 -0.921503 29.7019
L_Forearm  -13.5831 -16.9932 -20.687
L_Hand  0.758915 15.1367 4.45239
L_Thigh  -6.42435 -16.529 -1.1906
L_Calf  7.91259 0.925446 -6.36112
L_Foot  8.71488 7.32108 24.3256
L_Toe0  0.505156 0.034446 -6.1361
R_Thigh  -8.89344 -0.333216 9.51775
R_Calf  -1.35666 -13.0271 -45.7665
R_Foot  -0.512763 -3.3123 -3.15989
R_Toe0  -1.78853 -0.272788 -17.3235
261
root  3.76469 28.8689 48.177 -13.964 15.6312 76.3771
Spine  -4.27603 -6.24939 5.12446
Spine1  -3.81921 -4.08645 2.17861
Neck  3.97569e-016 0 -2.38542e-015
Head  -51.2761 -12.636 -0.142267
R_Clavicle  0.29332 -12.461 0.699579
R_UpperArm  9.92073 -0.979399 18.4703
R_Forearm  5.01571 20.8127 -18.4353
R_Hand  0.0882361 7.77137 -10.5149
L_Clavicle  -0.460867 16.3336 0.408003
L_UpperArm  -6.5834 0.726502 22.3102
L_Forearm  -8.99775 -21.7462 -27.4479
L_Hand  0.936676 13.6773 5.84016
L_Thigh  -4.07828 -16.0941 3.11503
L_Calf  13.385 0.2151 -1.15679
L_Foot  6.27195 6.98542 16.4825
L_Toe0  0.505156 0.034446 -6.1361
R_Thigh  -4.6215 -2.26544 3.40801
R_Calf  1.25849 -14.0651 -50.9113
R_Foot  -1.16537 -3.93299 0.219864
R_Toe0  -1.78853 -0.272788 -17.3235
262
root  5.52975 30.0019 47.4072 -9.8921 16.4607 80.705
Spine  -4.02165 -6.74697 4.07346
Spine1  -3.50715 -4.99757 -0.114935
Neck  3.97569e-016 0 -2.38542e-015
Head  -54.5498 -11.1619 3.94594
R_Clavicle  0.210908 -8.63821 0.434444
R_UpperArm  6.08419 3.16815 12.0976
R_Forearm  2.17182 22.9127 -20.5829
R_Hand  0.396118 7.72234 -7.93477
L_Clavicle  -0.423736 15.1039 -0.343311
L_UpperArm  -3.72242 -0.452096 13.3192
L_Forearm  -2.75075 -23.9244 -30.8371
L_Hand  0.843954 12.6199 5.56734
L_Thigh  -1.92658 -15.3821 6.85815
L_Calf  15.438 -1.01354 7.86424
L_Foot  2.1372 4.64838 3.96287
L_Toe0  0.505156 0.034446 -6.1361
R_Thigh  -0.26304 -2.74334 -0.0960927
R_Calf  3.0952 -13.5117 -48.1575
R_Foot  -0.979709 -3.76568 -0.706998
R_Toe0  -1.78853 -0.272788 -17.3235
263
root  7.26154 31.1563 46.5381 -6.42404 15.3339 85.4338
Spine  -3.79659 -4.96091 3.30013
Spine1  -3.34693 -6.91415 -3.47003
Neck  3.97569e-016 0 -2.38542e-015
Head  -56.8801 -9.55197 6.93549
R_Clavicle  0.167964 -4.07239 0.577987
R_UpperArm  5.1001 5.32282 5.79291
R_Forearm  3.38459 20.9762 -18.5976
R_Hand  0.284276 6.17125 -7.3492
L_Clavicle  -0.343147 13.1175 -0.998043
L_UpperArm  -2.75599 -2.5945 4.24338
L_Forearm  2.58476 -24.4003 -31.6079
L_Hand  0.755148 11.6601 5.25985
L_Thigh  -4.53349 -12.1504 10.0081
L_Calf  10.2876 -2.31587 17.5889
L_Foot  -0.987753 3.05762 -7.5355
L_Toe0  0.505156 0.034446 -6.1361
R_Thigh  2.21071 -1.60584 -1.4983
R_Calf  2.35889 -11.8123 -40.4238
R_Foot  -0.941761 -4.62033 -2.48473
R_Toe0  -1.78853 -0.272788 -17.3235
